<mxfile host="app.diagrams.net" agent="Mozilla/5.0 (Windows NT 10.0; Win64; x64) AppleWebKit/537.36 (KHTML, like Gecko) Chrome/138.0.0.0 Safari/537.36" version="27.2.0">
  <diagram name="Página-1" id="sbKpOacsjRBKdp_3Gu-H">
    <mxGraphModel dx="1642" dy="425" grid="1" gridSize="10" guides="1" tooltips="1" connect="1" arrows="1" fold="0" page="1" pageScale="1" pageWidth="827" pageHeight="1169" math="0" shadow="0">
      <root>
        <mxCell id="0" />
        <mxCell id="1" parent="0" />
        <mxCell id="gPB4BW73FDANHtr_k0wp-4" style="edgeStyle=orthogonalEdgeStyle;rounded=0;orthogonalLoop=1;jettySize=auto;html=1;exitX=0.25;exitY=1;exitDx=0;exitDy=0;entryX=0.25;entryY=0;entryDx=0;entryDy=0;" parent="1" source="gPB4BW73FDANHtr_k0wp-1" target="gPB4BW73FDANHtr_k0wp-2" edge="1">
          <mxGeometry relative="1" as="geometry" />
        </mxCell>
        <mxCell id="gPB4BW73FDANHtr_k0wp-9" value=".post / axios&lt;div style=&quot;text-align: left;&quot;&gt;Login&lt;/div&gt;&lt;div style=&quot;text-align: left;&quot;&gt;Registro&lt;/div&gt;&lt;div style=&quot;text-align: left;&quot;&gt;Pedir datos:&lt;/div&gt;&lt;div style=&quot;text-align: left;&quot;&gt;Card&lt;/div&gt;&lt;div style=&quot;text-align: left;&quot;&gt;CardEliminar&lt;/div&gt;&lt;div style=&quot;text-align: left;&quot;&gt;GuardarTabla&lt;/div&gt;" style="edgeLabel;html=1;align=center;verticalAlign=middle;resizable=0;points=[];" parent="gPB4BW73FDANHtr_k0wp-4" vertex="1" connectable="0">
          <mxGeometry x="-0.35" y="-4" relative="1" as="geometry">
            <mxPoint x="-76" y="17" as="offset" />
          </mxGeometry>
        </mxCell>
        <mxCell id="gPB4BW73FDANHtr_k0wp-1" value="Frontend&lt;div&gt;(Quasar)&lt;/div&gt;" style="rounded=0;whiteSpace=wrap;html=1;" parent="1" vertex="1">
          <mxGeometry x="280" y="50" width="120" height="60" as="geometry" />
        </mxCell>
        <mxCell id="gPB4BW73FDANHtr_k0wp-5" style="edgeStyle=orthogonalEdgeStyle;rounded=0;orthogonalLoop=1;jettySize=auto;html=1;exitX=0.75;exitY=0;exitDx=0;exitDy=0;entryX=0.75;entryY=1;entryDx=0;entryDy=0;" parent="1" source="gPB4BW73FDANHtr_k0wp-2" target="gPB4BW73FDANHtr_k0wp-1" edge="1">
          <mxGeometry relative="1" as="geometry" />
        </mxCell>
        <mxCell id="gPB4BW73FDANHtr_k0wp-6" style="edgeStyle=orthogonalEdgeStyle;rounded=0;orthogonalLoop=1;jettySize=auto;html=1;exitX=0.25;exitY=1;exitDx=0;exitDy=0;entryX=0.25;entryY=0;entryDx=0;entryDy=0;" parent="1" source="gPB4BW73FDANHtr_k0wp-2" target="gPB4BW73FDANHtr_k0wp-3" edge="1">
          <mxGeometry relative="1" as="geometry" />
        </mxCell>
        <mxCell id="gPB4BW73FDANHtr_k0wp-8" value="&lt;br&gt;&lt;div style=&quot;text-align: left;&quot;&gt;&lt;span style=&quot;background-color: light-dark(#ffffff, var(--ge-dark-color, #121212)); color: light-dark(rgb(0, 0, 0), rgb(255, 255, 255));&quot;&gt;Consulta |&amp;nbsp;&lt;/span&gt;SELECT ... WHERE ...&lt;/div&gt;&lt;div style=&quot;text-align: left;&quot;&gt;&lt;span style=&quot;background-color: light-dark(#ffffff, var(--ge-dark-color, #121212)); color: light-dark(rgb(0, 0, 0), rgb(255, 255, 255));&quot;&gt;Agrega |&amp;nbsp;&lt;/span&gt;INSERT INTO ... VALUES...&amp;nbsp;&lt;/div&gt;&lt;div style=&quot;text-align: left;&quot;&gt;Actualizar&amp;nbsp; | UPDATE tabla SET columna = valor&amp;nbsp;WHERE id = ?&lt;/div&gt;&lt;div style=&quot;text-align: left;&quot;&gt;Eliminar&amp;nbsp; |DELETE FROM tabla WHERE id = ?&lt;/div&gt;" style="edgeLabel;html=1;align=center;verticalAlign=middle;resizable=0;points=[];" parent="gPB4BW73FDANHtr_k0wp-6" vertex="1" connectable="0">
          <mxGeometry x="0.04" y="-1" relative="1" as="geometry">
            <mxPoint x="-159" y="-2" as="offset" />
          </mxGeometry>
        </mxCell>
        <mxCell id="gPB4BW73FDANHtr_k0wp-11" value="mysql2" style="edgeLabel;html=1;align=center;verticalAlign=middle;resizable=0;points=[];" parent="gPB4BW73FDANHtr_k0wp-6" vertex="1" connectable="0">
          <mxGeometry x="-0.15" y="3" relative="1" as="geometry">
            <mxPoint x="27" as="offset" />
          </mxGeometry>
        </mxCell>
        <mxCell id="gPB4BW73FDANHtr_k0wp-2" value="Backend&lt;div&gt;(Express)&lt;/div&gt;" style="rounded=0;whiteSpace=wrap;html=1;" parent="1" vertex="1">
          <mxGeometry x="280" y="210" width="120" height="60" as="geometry" />
        </mxCell>
        <mxCell id="gPB4BW73FDANHtr_k0wp-7" style="edgeStyle=orthogonalEdgeStyle;rounded=0;orthogonalLoop=1;jettySize=auto;html=1;exitX=0.75;exitY=0;exitDx=0;exitDy=0;entryX=0.75;entryY=1;entryDx=0;entryDy=0;" parent="1" source="gPB4BW73FDANHtr_k0wp-3" target="gPB4BW73FDANHtr_k0wp-2" edge="1">
          <mxGeometry relative="1" as="geometry" />
        </mxCell>
        <mxCell id="gPB4BW73FDANHtr_k0wp-3" value="Base de datos&lt;div&gt;(Mysql)&lt;/div&gt;" style="rounded=0;whiteSpace=wrap;html=1;" parent="1" vertex="1">
          <mxGeometry x="280" y="350" width="120" height="60" as="geometry" />
        </mxCell>
        <mxCell id="gPB4BW73FDANHtr_k0wp-10" value="socket.io .emite / .on&lt;div&gt;&lt;div style=&quot;text-align: left;&quot;&gt;Cliente conectado&lt;/div&gt;&lt;div style=&quot;text-align: left;&quot;&gt;Las card del usuario&lt;/div&gt;&lt;div style=&quot;text-align: left;&quot;&gt;Información de las Tablas&lt;/div&gt;&lt;/div&gt;" style="edgeLabel;html=1;align=center;verticalAlign=middle;resizable=0;points=[];" parent="1" vertex="1" connectable="0">
          <mxGeometry x="350" y="150" as="geometry">
            <mxPoint x="-2" y="6" as="offset" />
          </mxGeometry>
        </mxCell>
        <mxCell id="gPB4BW73FDANHtr_k0wp-12" value="&lt;div style=&quot;text-align: left;&quot;&gt;&lt;div&gt;Usuarios registrados&lt;/div&gt;&lt;div&gt;Las card del usuario&lt;/div&gt;&lt;div&gt;Información de las Tablas&lt;/div&gt;&lt;/div&gt;" style="edgeLabel;html=1;align=center;verticalAlign=middle;resizable=0;points=[];" parent="1" vertex="1" connectable="0">
          <mxGeometry x="440" y="310" as="geometry">
            <mxPoint x="5" y="5" as="offset" />
          </mxGeometry>
        </mxCell>
        <mxCell id="Y1zDUR6E9ekvSOQcYpA_-1" value=".get / .data.success&lt;div&gt;&lt;br&gt;&lt;/div&gt;&lt;div style=&quot;text-align: left;&quot;&gt;&quot;/&quot;&lt;/div&gt;&lt;div style=&quot;text-align: left;&quot;&gt;&quot;/user&quot;&lt;/div&gt;" style="edgeLabel;html=1;align=center;verticalAlign=middle;resizable=0;points=[];" vertex="1" connectable="0" parent="1">
          <mxGeometry x="480" y="140" as="geometry">
            <mxPoint x="-1" y="13" as="offset" />
          </mxGeometry>
        </mxCell>
      </root>
    </mxGraphModel>
  </diagram>
</mxfile>
